<?xml version="1.0" encoding="utf-8"?>
<!-- Generator: Adobe Illustrator 24.3.0, SVG Export Plug-In . SVG Version: 6.00 Build 0)  -->
<svg version="1.1" id="Layer_1" xmlns="http://www.w3.org/2000/svg" xmlns:xlink="http://www.w3.org/1999/xlink" x="0px" y="0px"
	 viewBox="0 0 50 50" style="enable-background:new 0 0 50 50;" xml:space="preserve">
<style type="text/css">
	.st0{fill-rule:evenodd;clip-rule:evenodd;}
</style>
<g>
	<path class="st0" d="M20.46,24.86h-3.14c-0.24,0-0.44-0.2-0.44-0.44v-5.17c0-0.24,0.2-0.44,0.44-0.44h3.14v-4.99
		c0-3.48,2.82-6.29,6.29-6.29h5.92c0.24,0,0.44,0.2,0.44,0.44v5.17c0,0.24-0.2,0.44-0.44,0.44h-3.51c-0.86,0-1.56,0.7-1.56,1.56
		v3.67h4.99c0.26,0,0.46,0.22,0.44,0.48l-0.44,5.17c-0.02,0.23-0.21,0.4-0.44,0.4h-4.55v17.17c0,0.24-0.2,0.44-0.44,0.44H20.9
		c-0.24,0-0.44-0.2-0.44-0.44V25.14V24.86z M50,34.94C50,43.26,43.26,50,34.94,50H15.06C6.74,50,0,43.26,0,34.94V15.06
		C0,6.74,6.74,0,15.06,0h19.88C43.26,0,50,6.74,50,15.06V34.94z"/>
</g>
</svg>
