<?xml version="1.0" encoding="utf-8"?>
<!-- Generator: Adobe Illustrator 24.3.0, SVG Export Plug-In . SVG Version: 6.00 Build 0)  -->
<svg version="1.1" id="Layer_1" xmlns="http://www.w3.org/2000/svg" xmlns:xlink="http://www.w3.org/1999/xlink" x="0px" y="0px"
	 viewBox="0 0 64 64" style="enable-background:new 0 0 64 64;" xml:space="preserve">
<style type="text/css">
	.st0{fill:#6BDAD5;}
	.st1{fill:none;}
</style>
<g>
	<circle class="st0" cx="32" cy="32" r="32"/>
	<g>
		<g>
			<path class="st1" d="M21.27,34.9c0-2.28-0.4-4.92-1.76-7.27v14.1C19.51,41.74,21.27,40.49,21.27,34.9z"/>
			<path class="st1" d="M17.95,21.33h-6.28c1.74,0.46,4.2,1.41,6.28,3.34V21.33z"/>
			<path d="M8.53,21.44c4.52,0.53,7.5,2.1,9.42,4.13v17.83c0,0,4.04-0.1,4.04-8.49c0-3.73-1.02-6.47-2.49-8.48v-5.09h10.67v-0.72
				H8.53V21.44z M19.51,27.63c1.36,2.35,1.76,4.99,1.76,7.27c0,5.59-1.76,6.84-1.76,6.84V27.63z M17.95,21.33v3.34
				c-2.09-1.93-4.55-2.88-6.28-3.34H17.95z"/>
			<path d="M48.09,29.45v-8.84h-1.55v9.65c-4.08,2.37-7.35,6.27-9.84,11.27V20.61h-1.55v22.37h1.55c2.3-4.78,5.58-9.17,9.84-11.84
				v11.84h1.55V30.26c2.22-1.11,4.68-1.75,7.38-1.78v-0.81C52.79,27.8,50.33,28.41,48.09,29.45z"/>
		</g>
		<path d="M28.1,40.33c-0.84,0-1.59,0.59-1.59,1.51c0,1.01,0.84,1.51,1.59,1.51c0.67,0,1.59-0.5,1.59-1.51
			C29.7,40.92,28.94,40.33,28.1,40.33z M28.1,42.88c-0.5,0-0.96-0.29-0.96-1.04c0-0.67,0.38-1.06,0.96-1.06
			c0.67,0,0.95,0.47,0.95,1.06C29.05,42.59,28.61,42.88,28.1,42.88z"/>
	</g>
</g>
</svg>
