<?xml version="1.0" encoding="utf-8"?>
<!-- Generator: Adobe Illustrator 24.3.0, SVG Export Plug-In . SVG Version: 6.00 Build 0)  -->
<svg version="1.1" id="Layer_1" xmlns="http://www.w3.org/2000/svg" xmlns:xlink="http://www.w3.org/1999/xlink" x="0px" y="0px"
	 viewBox="0 0 64 64" style="enable-background:new 0 0 64 64;" xml:space="preserve">
<style type="text/css">
	.st0{fill:none;}
</style>
<g>
	<g>
		<path class="st0" d="M17.37,35.95c0-3.11-0.55-6.71-2.4-9.91v19.23C14.97,45.27,17.37,43.58,17.37,35.95z"/>
		<path class="st0" d="M12.85,17.46H4.28c2.37,0.63,5.72,1.92,8.57,4.56V17.46z"/>
		<path d="M0,17.6c6.17,0.72,10.22,2.86,12.85,5.62v24.31c0,0,5.51-0.14,5.51-11.58c0-5.08-1.4-8.82-3.39-11.56v-6.94h14.54v-0.99H0
			V17.6z M14.97,26.05c1.85,3.2,2.4,6.8,2.4,9.91c0,7.63-2.4,9.32-2.4,9.32V26.05z M12.85,17.46v4.56c-2.84-2.63-6.2-3.93-8.57-4.56
			H12.85z"/>
		<path d="M53.94,28.52V16.47h-2.12v13.16c-5.56,3.24-10.03,8.55-13.41,15.36V16.47h-2.12v30.5h2.12
			c3.13-6.52,7.6-12.51,13.41-16.14v16.14h2.12V29.63c3.03-1.51,6.38-2.39,10.06-2.43v-1.1C60.34,26.27,56.99,27.1,53.94,28.52z"/>
	</g>
	<path d="M26.69,43.36c-1.14,0-2.17,0.8-2.17,2.06c0,1.37,1.14,2.06,2.17,2.06c0.92,0,2.17-0.69,2.17-2.06
		C28.86,44.16,27.83,43.36,26.69,43.36z M26.69,46.83c-0.69,0-1.31-0.39-1.31-1.42c0-0.92,0.51-1.44,1.31-1.44
		c0.92,0,1.29,0.64,1.29,1.44C27.98,46.44,27.38,46.83,26.69,46.83z"/>
</g>
</svg>
