<?xml version="1.0" encoding="utf-8"?>
<!-- Generator: Adobe Illustrator 24.3.0, SVG Export Plug-In . SVG Version: 6.00 Build 0)  -->
<svg version="1.1" id="Layer_1" xmlns="http://www.w3.org/2000/svg" xmlns:xlink="http://www.w3.org/1999/xlink" x="0px" y="0px"
	 viewBox="0 0 50 50" style="enable-background:new 0 0 50 50;" xml:space="preserve">
<g>
	<path d="M38.15,9.21c-1.62,0-2.94,1.32-2.94,2.94s1.32,2.94,2.94,2.94s2.94-1.32,2.94-2.94S39.78,9.21,38.15,9.21z M25.09,12.97
		c-6.81,0-12.35,5.54-12.35,12.35s5.54,12.35,12.35,12.35c6.81,0,12.35-5.54,12.35-12.35S31.89,12.97,25.09,12.97z M25.09,33.23
		c-4.36,0-7.91-3.55-7.91-7.91s3.55-7.91,7.91-7.91c4.36,0,7.91,3.55,7.91,7.91S29.45,33.23,25.09,33.23z M50,15.06
		C50,6.74,43.26,0,34.94,0H15.06C6.74,0,0,6.74,0,15.06v19.88C0,43.26,6.74,50,15.06,50h19.88C43.26,50,50,43.26,50,34.94V15.06z
		 M45.28,34.94c0,5.71-4.63,10.34-10.34,10.34H15.06c-5.71,0-10.34-4.63-10.34-10.34V15.06c0-5.71,4.63-10.34,10.34-10.34h19.88
		c5.71,0,10.34,4.63,10.34,10.34V34.94z"/>
</g>
</svg>
