<?xml version="1.0" encoding="utf-8"?>
<!-- Generator: Adobe Illustrator 24.3.0, SVG Export Plug-In . SVG Version: 6.00 Build 0)  -->
<svg version="1.1" id="Layer_1" xmlns="http://www.w3.org/2000/svg" xmlns:xlink="http://www.w3.org/1999/xlink" x="0px" y="0px"
	 viewBox="0 0 50 50" style="enable-background:new 0 0 50 50;" xml:space="preserve">
<g>
	<path d="M50,15.06C50,6.74,43.26,0,34.94,0H15.06C6.74,0,0,6.74,0,15.06v19.88C0,43.26,6.74,50,15.06,50h19.88
		C43.26,50,50,43.26,50,34.94V15.06z M27.08,32.77c-1.95-0.15-2.77-1.12-4.3-2.05c-0.68,3.58-1.49,7.04-3.39,9.4
		c-0.55,0.69-1.67,0.34-1.72-0.54c-0.29-5.7,1.68-10.23,2.65-15c-1.84-3.09,0.22-9.32,4.1-7.78c4.77,1.89-4.13,11.5,1.84,12.7
		c6.24,1.25,8.78-10.82,4.91-14.75c-5.59-5.67-16.27-0.13-14.95,7.99c0.25,1.54,1.54,2.25,1.38,3.78c-0.1,0.95-1.08,1.49-1.94,1.09
		c-2.47-1.16-3.24-3.69-3.12-6.91c0.22-6.16,5.53-10.47,10.86-11.06c6.74-0.75,13.06,2.47,13.93,8.81
		C38.31,25.58,34.29,33.33,27.08,32.77L27.08,32.77z"/>
</g>
</svg>
